<svg width="16" height="16" viewBox="0 0 16 16" fill="none" xmlns="http://www.w3.org/2000/svg">
<path d="M7.33333 8.66667H0.666667C0.477778 8.66667 0.319444 8.60267 0.191667 8.47467C0.0638889 8.34667 0 8.18811 0 7.999C0 7.80989 0.0638889 7.65167 0.191667 7.52433C0.319444 7.397 0.477778 7.33333 0.666667 7.33333H7.33333V0.666667C7.33333 0.477778 7.39733 0.319444 7.52533 0.191667C7.65333 0.0638889 7.81189 0 8.001 0C8.19011 0 8.34833 0.0638889 8.47567 0.191667C8.603 0.319444 8.66667 0.477778 8.66667 0.666667V7.33333H15.3333C15.5222 7.33333 15.6806 7.39733 15.8083 7.52533C15.9361 7.65333 16 7.81189 16 8.001C16 8.19011 15.9361 8.34833 15.8083 8.47567C15.6806 8.603 15.5222 8.66667 15.3333 8.66667H8.66667V15.3333C8.66667 15.5222 8.60267 15.6806 8.47467 15.8083C8.34667 15.9361 8.18811 16 7.999 16C7.80989 16 7.65167 15.9361 7.52433 15.8083C7.397 15.6806 7.33333 15.5222 7.33333 15.3333V8.66667Z" fill="#EEEEEE"/>
</svg>
