<svg width="14" height="14" viewBox="0 0 14 14" fill="none" xmlns="http://www.w3.org/2000/svg">
<path d="M11.9096 7.12362H0.46635C0.336216 7.12362 0.225958 7.08004 0.135575 6.99287C0.0451914 6.90569 0 6.79703 0 6.6669C0 6.53677 0.0451914 6.42651 0.135575 6.33612C0.225958 6.24574 0.336216 6.20055 0.46635 6.20055H11.9096L6.5173 0.808248C6.4282 0.719148 6.38092 0.612098 6.37547 0.487098C6.37003 0.362098 6.41826 0.248632 6.52018 0.146699C6.61569 0.046699 6.72435 -0.00217573 6.84615 7.42669e-05C6.96795 0.0023076 7.07981 0.0511824 7.18172 0.146699L13.1548 6.11977C13.2337 6.20504 13.2928 6.2911 13.3322 6.37795C13.3716 6.46482 13.3913 6.56113 13.3913 6.6669C13.3913 6.77267 13.3716 6.86898 13.3322 6.95585C13.2928 7.0427 13.2337 7.12555 13.1548 7.2044L7.18172 13.1775C7.08814 13.2711 6.97837 13.3211 6.8524 13.3275C6.72643 13.3339 6.61569 13.2839 6.52018 13.1775C6.41826 13.082 6.3673 12.9744 6.3673 12.8549C6.3673 12.7353 6.41826 12.6246 6.52018 12.5227L11.9096 7.12362Z" fill="#EEEEEE"/>
</svg>
