<svg width="12" height="15" viewBox="0 0 12 15" fill="none" xmlns="http://www.w3.org/2000/svg">
<path d="M6.00477 12.8L2.274 14.3952C1.75798 14.617 1.27048 14.575 0.811497 14.2692C0.35253 13.9634 0.123047 13.5329 0.123047 12.9779V1.67245C0.123047 1.24312 0.27138 0.880118 0.568047 0.583452C0.86473 0.286768 1.22783 0.138428 1.65735 0.138428H10.3426C10.7721 0.138428 11.1352 0.286768 11.4319 0.583452C11.7286 0.880118 11.8769 1.24312 11.8769 1.67245V12.9779C11.8769 13.5329 11.6474 13.9634 11.1884 14.2692C10.7295 14.575 10.2452 14.617 9.73555 14.3952L6.00477 12.8ZM5.99997 11.7507L10.0884 13.5231C10.2936 13.6128 10.4891 13.5936 10.675 13.4654C10.8609 13.3372 10.9538 13.1641 10.9538 12.9461V1.6769C10.9538 1.52305 10.8897 1.38203 10.7615 1.25383C10.6333 1.12563 10.4923 1.06153 10.3384 1.06153H1.6615C1.50766 1.06153 1.36664 1.12563 1.23842 1.25383C1.11022 1.38203 1.04612 1.52305 1.04612 1.6769V12.9461C1.04612 13.1641 1.13907 13.3372 1.32497 13.4654C1.51087 13.5936 1.70638 13.6128 1.9115 13.5231L5.99997 11.7507Z" fill="#EEEEEE"/>
</svg>
