<svg width="14" height="14" viewBox="0 0 14 14" fill="none" xmlns="http://www.w3.org/2000/svg">
<path d="M6.99997 7.70772L1.75372 12.9537C1.66022 13.0474 1.54547 13.0974 1.40947 13.1037C1.27364 13.1102 1.15256 13.0602 1.04622 12.9537C0.939725 12.8474 0.886475 12.7295 0.886475 12.6C0.886475 12.4705 0.939725 12.3526 1.04622 12.2462L6.29222 6.99997L1.04622 1.75372C0.952558 1.66022 0.902558 1.54547 0.896225 1.40947C0.889725 1.27364 0.939725 1.15256 1.04622 1.04622C1.15256 0.939723 1.27047 0.886475 1.39997 0.886475C1.52947 0.886475 1.64739 0.939723 1.75372 1.04622L6.99997 6.29222L12.2462 1.04622C12.3397 0.952557 12.4545 0.902557 12.5905 0.896223C12.7263 0.889723 12.8474 0.939723 12.9537 1.04622C13.0602 1.15256 13.1135 1.27047 13.1135 1.39997C13.1135 1.52947 13.0602 1.64739 12.9537 1.75372L7.70772 6.99997L12.9537 12.2462C13.0474 12.3397 13.0974 12.4545 13.1037 12.5905C13.1102 12.7263 13.0602 12.8474 12.9537 12.9537C12.8474 13.0602 12.7295 13.1135 12.6 13.1135C12.4705 13.1135 12.3526 13.0602 12.2462 12.9537L6.99997 7.70772Z" fill="#EEEEEE"/>
</svg>
