<svg width="11" height="12" viewBox="0 0 11 12" fill="none" xmlns="http://www.w3.org/2000/svg">
<path d="M2.02908 11.2564C1.66982 11.2564 1.36228 11.1384 1.10645 10.9024C0.850606 10.6664 0.722685 10.3826 0.722685 10.0512V1.58972H0.542014C0.388443 1.58972 0.259715 1.54178 0.155829 1.4459C0.051943 1.35003 0 1.23123 0 1.0895C0 0.947778 0.051943 0.829056 0.155829 0.733333C0.259715 0.6376 0.388443 0.589733 0.542014 0.589733H3.25206C3.25206 0.426488 3.31437 0.287389 3.43899 0.172433C3.5636 0.0574779 3.71439 0 3.89135 0H6.94889C7.12585 0 7.27664 0.0574779 7.40125 0.172433C7.52587 0.287389 7.58818 0.426488 7.58818 0.589733H10.2982C10.4518 0.589733 10.5805 0.637672 10.6844 0.73355C10.7883 0.829428 10.8402 0.948227 10.8402 1.08995C10.8402 1.23168 10.7883 1.35041 10.6844 1.44613C10.5805 1.54186 10.4518 1.58972 10.2982 1.58972H10.1176V10.0512C10.1176 10.3826 9.98963 10.6664 9.73379 10.9024C9.47796 11.1384 9.17042 11.2564 8.81116 11.2564H2.02908ZM9.03355 1.58972H1.80669V10.0512C1.80669 10.1111 1.82754 10.1602 1.86924 10.1987C1.91094 10.2372 1.96422 10.2564 2.02908 10.2564H8.81116C8.87602 10.2564 8.9293 10.2372 8.971 10.1987C9.0127 10.1602 9.03355 10.1111 9.03355 10.0512V1.58972ZM4.08619 8.92305C4.23982 8.92305 4.36852 8.87513 4.47228 8.7793C4.57606 8.68347 4.62795 8.56472 4.62795 8.42307V3.42303C4.62795 3.28138 4.57598 3.16263 4.47205 3.0668C4.36811 2.97097 4.23933 2.92305 4.0857 2.92305C3.93206 2.92305 3.80335 2.97097 3.69959 3.0668C3.59582 3.16263 3.54394 3.28138 3.54394 3.42303V8.42307C3.54394 8.56472 3.59591 8.68347 3.69984 8.7793C3.80376 8.87513 3.93255 8.92305 4.08619 8.92305ZM6.75454 8.92305C6.90818 8.92305 7.03689 8.87513 7.14065 8.7793C7.24442 8.68347 7.2963 8.56472 7.2963 8.42307V3.42303C7.2963 3.28138 7.24433 3.16263 7.1404 3.0668C7.03648 2.97097 6.9077 2.92305 6.75405 2.92305C6.60042 2.92305 6.47172 2.97097 6.36796 3.0668C6.26418 3.16263 6.21229 3.28138 6.21229 3.42303V8.42307C6.21229 8.56472 6.26426 8.68347 6.36819 8.7793C6.47213 8.87513 6.60091 8.92305 6.75454 8.92305Z" fill="#EEEEEE"/>
</svg>
