<svg width="22" height="22" viewBox="0 0 22 22" fill="none" xmlns="http://www.w3.org/2000/svg">
<path d="M11 1C8.62586 0.99875 6.32881 1.86429 4.52017 3.44162C2.71154 5.01896 1.50943 7.20509 1.1291 9.60854C0.748776 12.012 1.21507 14.4758 2.44449 16.5588C3.67391 18.6418 5.58617 20.208 7.83884 20.9768C8.3409 21.0722 8.52221 20.7575 8.52221 20.5001V18.7598C5.73295 19.3797 5.1565 17.3867 5.1565 17.3867C4.97201 16.7562 4.5706 16.2157 4.02685 15.8658C3.12034 15.2317 4.09658 15.2412 4.09658 15.2412C4.41324 15.2867 4.7156 15.4057 4.98064 15.5891C5.24568 15.7725 5.46641 16.0155 5.62603 16.2997C6.51859 17.8683 7.95041 17.4153 8.53615 17.1531C8.582 16.6322 8.80787 16.1452 9.17303 15.78C6.95092 15.5225 4.61725 14.6453 4.61725 10.7167C4.603 9.69758 4.97268 8.71215 5.64927 7.96567C5.34169 7.08197 5.37663 6.11088 5.74689 5.25283C5.74689 5.25283 6.58367 4.9763 8.49431 6.30173C10.1318 5.84402 11.8589 5.84402 13.4964 6.30173C15.407 4.9763 16.2438 5.25283 16.2438 5.25283C16.6112 6.11154 16.6462 7.08152 16.3414 7.96567C17.0172 8.71237 17.3853 9.69806 17.3688 10.7167C17.3688 14.6548 15.0444 15.5178 12.8084 15.7752C13.0483 16.0246 13.2331 16.3239 13.3502 16.653C13.4673 16.9821 13.514 17.3331 13.4871 17.6823V20.4953C13.4871 20.8338 13.6684 21.0865 14.1751 20.9721C16.4255 20.2002 18.3347 18.6324 19.5612 16.5492C20.7877 14.4659 21.2516 12.003 20.8697 9.6011C20.4879 7.19921 19.2853 5.015 17.477 3.43918C15.6688 1.86336 13.3729 0.998748 11 1Z" stroke="#EEEEEE" stroke-linecap="round" stroke-linejoin="round"/>
</svg>
