<svg width="17" height="17" viewBox="0 0 17 17" fill="none" xmlns="http://www.w3.org/2000/svg">
<path d="M6.53839 12.2308C4.93968 12.2308 3.58487 11.6754 2.47397 10.5645C1.36307 9.45359 0.807617 8.09878 0.807617 6.50006C0.807617 4.90135 1.36307 3.54654 2.47397 2.43564C3.58487 1.32474 4.93968 0.769287 6.53839 0.769287C8.13713 0.769287 9.49193 1.32474 10.6028 2.43564C11.7137 3.54654 12.2692 4.90135 12.2692 6.50006C12.2692 7.19493 12.1461 7.86736 11.8999 8.51736C11.6538 9.16736 11.3307 9.72314 10.9307 10.1847L16.8384 16.0924C16.932 16.186 16.982 16.3007 16.9884 16.4366C16.9948 16.5725 16.9448 16.6936 16.8384 16.8001C16.732 16.9065 16.6141 16.9597 16.4846 16.9597C16.3551 16.9597 16.2371 16.9065 16.1307 16.8001L10.223 10.8924C9.72302 11.318 9.14802 11.6475 8.49802 11.8808C7.84802 12.1142 7.19481 12.2308 6.53839 12.2308ZM6.53839 11.2308C7.86533 11.2308 8.98552 10.7741 9.89897 9.86064C10.8124 8.94717 11.2692 7.82698 11.2692 6.50006C11.2692 5.17315 10.8124 4.05295 9.89897 3.13949C8.98552 2.22602 7.86533 1.76929 6.53839 1.76929C5.21148 1.76929 4.09128 2.22602 3.17782 3.13949C2.26437 4.05295 1.80764 5.17315 1.80764 6.50006C1.80764 7.82698 2.26437 8.94717 3.17782 9.86064C4.09128 10.7741 5.21148 11.2308 6.53839 11.2308Z" fill="#EEEEEE"/>
</svg>
