<svg width="18" height="18" viewBox="0 0 18 18" fill="none" xmlns="http://www.w3.org/2000/svg">
<path d="M7.95954 18C7.72754 18 7.52595 17.9237 7.35479 17.7712C7.18362 17.6186 7.07754 17.4282 7.03654 17.2L6.77304 15.1077C6.45387 15.0116 6.1087 14.8603 5.73754 14.6538C5.36637 14.4474 5.0507 14.2263 4.79054 13.9905L2.87504 14.8135C2.66354 14.907 2.44879 14.9173 2.23079 14.8443C2.01279 14.7711 1.84487 14.6326 1.72704 14.4288L0.648036 12.5712C0.530203 12.3674 0.49562 12.1546 0.544287 11.9327C0.592953 11.7109 0.708953 11.5288 0.892287 11.3865L2.56354 10.1365C2.53404 9.95583 2.5097 9.76967 2.49054 9.578C2.4712 9.38633 2.46154 9.20008 2.46154 9.01925C2.46154 8.85125 2.4712 8.67467 2.49054 8.4895C2.5097 8.30417 2.53404 8.0955 2.56354 7.8635L0.892287 6.6135C0.708953 6.47117 0.59612 6.28592 0.553786 6.05775C0.51162 5.82958 0.549453 5.6135 0.667287 5.4095L1.72704 3.6095C1.84487 3.4185 2.01279 3.28325 2.23079 3.20375C2.44879 3.12425 2.66354 3.13133 2.87504 3.225L4.77129 4.02875C5.06995 3.78008 5.39304 3.55575 5.74054 3.35575C6.08787 3.15575 6.42562 3.00125 6.75379 2.89225L7.03654 0.8C7.07754 0.571833 7.18362 0.381417 7.35479 0.228751C7.52595 0.0762506 7.72754 0 7.95954 0H10.0405C10.2725 0 10.4741 0.0762506 10.6453 0.228751C10.8165 0.381417 10.9225 0.571833 10.9635 0.8L11.227 2.9115C11.6104 3.04617 11.9491 3.20067 12.2433 3.375C12.5375 3.54933 12.8404 3.76725 13.152 4.02875L15.1443 3.225C15.3558 3.13133 15.5705 3.12425 15.7885 3.20375C16.0065 3.28325 16.1745 3.4185 16.2923 3.6095L17.352 5.42875C17.4699 5.63258 17.5045 5.84542 17.4558 6.06725C17.4071 6.28908 17.2911 6.47117 17.1078 6.6135L15.3595 7.92125C15.4147 8.12758 15.4455 8.317 15.452 8.4895C15.4584 8.66183 15.4615 8.832 15.4615 9C15.4615 9.15517 15.4551 9.31892 15.4423 9.49125C15.4295 9.66375 15.4 9.87242 15.3538 10.1173L17.0443 11.3865C17.2276 11.5288 17.3469 11.7109 17.402 11.9327C17.457 12.1546 17.4256 12.3674 17.3078 12.5712L16.2423 14.4095C16.1245 14.6135 15.9533 14.752 15.7288 14.825C15.5045 14.898 15.2865 14.8878 15.075 14.7943L13.152 13.9712C12.8404 14.2327 12.5269 14.4571 12.2115 14.6443C11.8962 14.8314 11.568 14.9795 11.227 15.0885L10.9635 17.2C10.9225 17.4282 10.8165 17.6186 10.6453 17.7712C10.4741 17.9237 10.2725 18 10.0405 18H7.95954ZM8.00004 17H9.95579L10.325 14.2923C10.8289 14.1589 11.2824 13.9759 11.6855 13.7432C12.0889 13.5106 12.4995 13.1917 12.9173 12.7865L15.4115 13.85L16.4058 12.15L14.2173 10.5058C14.3006 10.2211 14.3558 9.95925 14.3828 9.72025C14.4096 9.48108 14.423 9.241 14.423 9C14.423 8.74617 14.4096 8.50608 14.3828 8.27975C14.3558 8.05358 14.3006 7.80458 14.2173 7.53275L16.4443 5.85L15.45 4.15L12.898 5.21925C12.5955 4.88725 12.1978 4.576 11.7048 4.2855C11.212 3.99517 10.7456 3.80258 10.3058 3.70775L10 1H8.00579L7.69429 3.6885C7.19045 3.79617 6.72729 3.96958 6.30479 4.20875C5.88245 4.44775 5.46229 4.77625 5.04429 5.19425L2.55004 4.15L1.55579 5.85L3.72504 7.46925C3.6417 7.69358 3.58337 7.93717 3.55004 8.2C3.5167 8.46283 3.50004 8.73592 3.50004 9.01925C3.50004 9.27308 3.5167 9.525 3.55004 9.775C3.58337 10.025 3.63529 10.2686 3.70579 10.5058L1.55579 12.15L2.55004 13.85L5.02504 12.8C5.41737 13.1962 5.8247 13.5138 6.24704 13.753C6.66954 13.992 7.14554 14.1782 7.67504 14.3115L8.00004 17ZM8.97304 11.5C9.67054 11.5 10.2616 11.2577 10.7463 10.773C11.2308 10.2885 11.473 9.6975 11.473 9C11.473 8.3025 11.2308 7.7115 10.7463 7.227C10.2616 6.74233 9.67054 6.5 8.97304 6.5C8.27187 6.5 7.67987 6.74233 7.19704 7.227C6.71437 7.7115 6.47304 8.3025 6.47304 9C6.47304 9.6975 6.71437 10.2885 7.19704 10.773C7.67987 11.2577 8.27187 11.5 8.97304 11.5Z" fill="#EEEEEE"/>
</svg>
