<svg width="10" height="12" viewBox="0 0 10 12" fill="none" xmlns="http://www.w3.org/2000/svg">
<path d="M3.02467 6.42706C2.87664 6.42706 2.75264 6.37977 2.65267 6.28518C2.55269 6.1906 2.5027 6.07339 2.5027 5.93357V1.63615L0.889113 3.16102C0.794938 3.25213 0.677216 3.29768 0.535947 3.29768C0.394678 3.29768 0.270039 3.25047 0.16203 3.15607C0.0540101 3.05308 0 2.93536 0 2.80291C0 2.67046 0.0540101 2.5532 0.16203 2.45113L2.57767 0.168306C2.64284 0.106726 2.71187 0.0632795 2.78477 0.0379676C2.85767 0.0126557 2.93579 0 3.01911 0C3.10243 0 3.18157 0.0127494 3.25655 0.0382477C3.33155 0.063757 3.40118 0.10711 3.46545 0.168306L5.8985 2.46758C6.00205 2.56544 6.05316 2.67891 6.05182 2.80798C6.05048 2.93705 5.9958 3.05308 5.88779 3.15607C5.77978 3.25047 5.65749 3.29937 5.52091 3.30274C5.38433 3.30612 5.26203 3.25677 5.15401 3.15469L3.54712 1.63615V5.9399C3.54712 6.07793 3.49706 6.19363 3.39693 6.287C3.29679 6.38038 3.1727 6.42706 3.02467 6.42706ZM6.98089 12C6.89757 12 6.81843 11.9873 6.74345 11.9618C6.66845 11.9363 6.59882 11.8929 6.53455 11.8317L4.1015 9.53242C3.99795 9.43457 3.94684 9.32111 3.94818 9.19204C3.94952 9.06297 4.0042 8.94694 4.11221 8.84395C4.22022 8.74953 4.34251 8.70064 4.47909 8.69726C4.61567 8.69389 4.73797 8.74324 4.84599 8.84531L6.45288 10.3638V6.06012C6.45288 5.92209 6.50294 5.80638 6.60307 5.713C6.70321 5.61962 6.8273 5.57294 6.97533 5.57294C7.12336 5.57294 7.24736 5.62023 7.34733 5.71482C7.44731 5.80941 7.4973 5.92662 7.4973 6.06644V10.3638L9.11089 8.83899C9.20506 8.74788 9.32279 8.70232 9.46405 8.70232C9.60532 8.70232 9.72996 8.74953 9.83797 8.84395C9.94599 8.94694 10 9.06465 10 9.19709C10 9.32954 9.94599 9.4468 9.83797 9.54887L7.42233 11.8317C7.35717 11.8933 7.28813 11.9367 7.21523 11.962C7.14233 11.9873 7.06421 12 6.98089 12Z" fill="#EEEEEE"/>
</svg>
